<svg width="24" height="24" viewBox="0 0 24 24" fill="none" xmlns="http://www.w3.org/2000/svg">
<g id="Frame">
<path id="Rectangle 6205" d="M2 9C2 6.79086 3.79086 5 6 5H18C20.2091 5 22 6.79086 22 9V15C22 17.2091 20.2091 19 18 19H6C3.79086 19 2 17.2091 2 15V9Z" fill="white"/>
<path id="Rectangle 6205 (Stroke)" fill-rule="evenodd" clip-rule="evenodd" d="M18 7H6C4.89543 7 4 7.89543 4 9V15C4 16.1046 4.89543 17 6 17H18C19.1046 17 20 16.1046 20 15V9C20 7.89543 19.1046 7 18 7ZM6 5C3.79086 5 2 6.79086 2 9V15C2 17.2091 3.79086 19 6 19H18C20.2091 19 22 17.2091 22 15V9C22 6.79086 20.2091 5 18 5H6Z" fill="#596481"/>
<path id="Line 4 (Stroke)" fill-rule="evenodd" clip-rule="evenodd" d="M9 18L9 6L11 6L11 18L9 18Z" fill="#596481"/>
</g>
</svg>
