<svg width="24" height="24" viewBox="0 0 24 24" fill="none" xmlns="http://www.w3.org/2000/svg">
<g id="Frame">
<path id="Rectangle 6205" d="M2 9C2 6.79086 3.79086 5 6 5H18C20.2091 5 22 6.79086 22 9V15C22 17.2091 20.2091 19 18 19H6C3.79086 19 2 17.2091 2 15V9Z" fill="white"/>
<path id="Rectangle 6205 (Stroke)" fill-rule="evenodd" clip-rule="evenodd" d="M5.21935 18.9239L5.60749 16.9619C5.73283 16.9867 5.86387 17 6 17H7V19H6C5.73286 19 5.47183 18.9738 5.21935 18.9239ZM17 19V17H18C18.1361 17 18.2672 16.9867 18.3925 16.9619L18.7806 18.9239C18.5282 18.9738 18.2671 19 18 19H17ZM20.2225 18.3263L19.1098 16.6643C19.3288 16.5177 19.5177 16.3288 19.6643 16.1098L21.3263 17.2225C21.0342 17.6587 20.6587 18.0342 20.2225 18.3263ZM22 9.75H20V9C20 8.86387 19.9867 8.73283 19.9619 8.60749L21.9239 8.21935C21.9738 8.47183 22 8.73286 22 9V9.75ZM21.3263 6.77754L19.6643 7.89018C19.5177 7.67121 19.3288 7.48227 19.1098 7.33568L20.2225 5.67374C20.6587 5.96577 21.0342 6.34133 21.3263 6.77754ZM7 5H6C5.73286 5 5.47183 5.02619 5.21935 5.07614L5.60749 7.03811C5.73283 7.01332 5.86387 7 6 7H7V5ZM3.77754 5.67374L4.89018 7.33568C4.67121 7.48227 4.48227 7.67121 4.33568 7.89018L2.67374 6.77754C2.96577 6.34133 3.34133 5.96577 3.77754 5.67374ZM2 14.25H4V15C4 15.1361 4.01332 15.2672 4.03811 15.3925L2.07614 15.7806C2.02619 15.5282 2 15.2671 2 15V14.25ZM3.77754 18.3263L4.89018 16.6643C4.67121 16.5177 4.48227 16.3288 4.33568 16.1098L2.67374 17.2225C2.96577 17.6587 3.34133 18.0342 3.77754 18.3263ZM2 12.75H4V11.25H2V12.75ZM2 9.75H4V9C4 8.86387 4.01332 8.73283 4.03811 8.60749L2.07614 8.21935C2.02619 8.47183 2 8.73286 2 9V9.75ZM9 5V7H11V5H9ZM13 5V7H15V5H13ZM17 5V7H18C18.1361 7 18.2672 7.01332 18.3925 7.03811L18.7806 5.07614C18.5282 5.02619 18.2671 5 18 5H17ZM22 11.25H20V12.75H22V11.25ZM22 14.25H20V15C20 15.1361 19.9867 15.2672 19.9619 15.3925L21.9239 15.7806C21.9738 15.5282 22 15.2671 22 15V14.25ZM15 19V17H13V19H15ZM11 19V17H9V19H11Z" fill="#596481"/>
</g>
</svg>
