<svg width="24" height="24" viewBox="0 0 24 24" fill="none" xmlns="http://www.w3.org/2000/svg">
<g id="Frame">
<path id="Rectangle 6204" d="M12 1.28516L22.8579 12.143L12 23.0009L1.14214 12.143L12 1.28516Z" fill="white"/>
<path id="Rectangle 6204 (Stroke)" fill-rule="evenodd" clip-rule="evenodd" d="M20.0294 12.143L12 4.11358L3.97056 12.143L12 20.1725L20.0294 12.143ZM12 1.28516L1.14214 12.143L12 23.0009L22.8579 12.143L12 1.28516Z" fill="#596481"/>
<path id="Ellipse 149" d="M16 12C16 14.2091 14.2091 16 12 16C9.79086 16 8 14.2091 8 12C8 9.79086 9.79086 8 12 8C14.2091 8 16 9.79086 16 12Z" fill="white"/>
<path id="Ellipse 149 (Stroke)" fill-rule="evenodd" clip-rule="evenodd" d="M12 14C13.1046 14 14 13.1046 14 12C14 10.8954 13.1046 10 12 10C10.8954 10 10 10.8954 10 12C10 13.1046 10.8954 14 12 14ZM12 16C14.2091 16 16 14.2091 16 12C16 9.79086 14.2091 8 12 8C9.79086 8 8 9.79086 8 12C8 14.2091 9.79086 16 12 16Z" fill="#596481"/>
</g>
</svg>
